ModelForces
version=1
nRows=4
nColumns=199
inDegrees=no

This file contains the forces exerted on a model during a simulation.

A force is a generalized force, meaning that it can be either a force (N) or a torque (Nm).

Units are S.I. units (second, meters, Newtons, ...)
Angles are in degrees.

endheader
time	glut_med1_r	glut_med2_r	glut_med3_r	glut_min1_r	glut_min2_r	glut_min3_r	semimem_r	semiten_r	bifemlh_r	bifemsh_r	sar_r	add_long_r	add_brev_r	add_mag1_r	add_mag2_r	add_mag3_r	tfl_r	pect_r	grac_r	glut_max1_r	glut_max2_r	glut_max3_r	iliacus_r	psoas_r	quad_fem_r	gem_r	peri_r	rect_fem_r	vas_med_r	vas_int_r	vas_lat_r	med_gas_r	lat_gas_r	soleus_r	tib_post_r	flex_dig_r	flex_hal_r	tib_ant_r	per_brev_r	per_long_r	per_tert_r	ext_dig_r	ext_hal_r	glut_med1_l	glut_med2_l	glut_med3_l	glut_min1_l	glut_min2_l	glut_min3_l	semimem_l	semiten_l	bifemlh_l	bifemsh_l	sar_l	add_long_l	add_brev_l	add_mag1_l	add_mag2_l	add_mag3_l	tfl_l	pect_l	grac_l	glut_max1_l	glut_max2_l	glut_max3_l	iliacus_l	psoas_l	quad_fem_l	gem_l	peri_l	rect_fem_l	vas_med_l	vas_int_l	vas_lat_l	med_gas_l	lat_gas_l	soleus_l	tib_post_l	flex_dig_l	flex_hal_l	tib_ant_l	per_brev_l	per_long_l	per_tert_l	ext_dig_l	ext_hal_l	ercspn_r	ercspn_l	intobl_r	intobl_l	extobl_r	extobl_l	femur_lat_meniscii_l.femur_lat_l.force.X	femur_lat_meniscii_l.femur_lat_l.force.Y	femur_lat_meniscii_l.femur_lat_l.force.Z	femur_lat_meniscii_l.femur_lat_l.torque.X	femur_lat_meniscii_l.femur_lat_l.torque.Y	femur_lat_meniscii_l.femur_lat_l.torque.Z	femur_lat_meniscii_l.meniscus_lat_l.force.X	femur_lat_meniscii_l.meniscus_lat_l.force.Y	femur_lat_meniscii_l.meniscus_lat_l.force.Z	femur_lat_meniscii_l.meniscus_lat_l.torque.X	femur_lat_meniscii_l.meniscus_lat_l.torque.Y	femur_lat_meniscii_l.meniscus_lat_l.torque.Z	femur_med_meniscii_l.femur_med_l.force.X	femur_med_meniscii_l.femur_med_l.force.Y	femur_med_meniscii_l.femur_med_l.force.Z	femur_med_meniscii_l.femur_med_l.torque.X	femur_med_meniscii_l.femur_med_l.torque.Y	femur_med_meniscii_l.femur_med_l.torque.Z	femur_med_meniscii_l.meniscus_med_l.force.X	femur_med_meniscii_l.meniscus_med_l.force.Y	femur_med_meniscii_l.meniscus_med_l.force.Z	femur_med_meniscii_l.meniscus_med_l.torque.X	femur_med_meniscii_l.meniscus_med_l.torque.Y	femur_med_meniscii_l.meniscus_med_l.torque.Z	femur_lat_meniscii_r.femur_lat_r.force.X	femur_lat_meniscii_r.femur_lat_r.force.Y	femur_lat_meniscii_r.femur_lat_r.force.Z	femur_lat_meniscii_r.femur_lat_r.torque.X	femur_lat_meniscii_r.femur_lat_r.torque.Y	femur_lat_meniscii_r.femur_lat_r.torque.Z	femur_lat_meniscii_r.meniscus_lat_r.force.X	femur_lat_meniscii_r.meniscus_lat_r.force.Y	femur_lat_meniscii_r.meniscus_lat_r.force.Z	femur_lat_meniscii_r.meniscus_lat_r.torque.X	femur_lat_meniscii_r.meniscus_lat_r.torque.Y	femur_lat_meniscii_r.meniscus_lat_r.torque.Z	femur_med_meniscii_r.femur_med_r.force.X	femur_med_meniscii_r.femur_med_r.force.Y	femur_med_meniscii_r.femur_med_r.force.Z	femur_med_meniscii_r.femur_med_r.torque.X	femur_med_meniscii_r.femur_med_r.torque.Y	femur_med_meniscii_r.femur_med_r.torque.Z	femur_med_meniscii_r.meniscus_med_r.force.X	femur_med_meniscii_r.meniscus_med_r.force.Y	femur_med_meniscii_r.meniscus_med_r.force.Z	femur_med_meniscii_r.meniscus_med_r.torque.X	femur_med_meniscii_r.meniscus_med_r.torque.Y	femur_med_meniscii_r.meniscus_med_r.torque.Z	femur_med_tibia_l.tibia_upper_l.force.X	femur_med_tibia_l.tibia_upper_l.force.Y	femur_med_tibia_l.tibia_upper_l.force.Z	femur_med_tibia_l.tibia_upper_l.torque.X	femur_med_tibia_l.tibia_upper_l.torque.Y	femur_med_tibia_l.tibia_upper_l.torque.Z	femur_med_tibia_l.femur_med_l.force.X	femur_med_tibia_l.femur_med_l.force.Y	femur_med_tibia_l.femur_med_l.force.Z	femur_med_tibia_l.femur_med_l.torque.X	femur_med_tibia_l.femur_med_l.torque.Y	femur_med_tibia_l.femur_med_l.torque.Z	femur_lat_tibia_l.tibia_upper_l.force.X	femur_lat_tibia_l.tibia_upper_l.force.Y	femur_lat_tibia_l.tibia_upper_l.force.Z	femur_lat_tibia_l.tibia_upper_l.torque.X	femur_lat_tibia_l.tibia_upper_l.torque.Y	femur_lat_tibia_l.tibia_upper_l.torque.Z	femur_lat_tibia_l.femur_lat_l.force.X	femur_lat_tibia_l.femur_lat_l.force.Y	femur_lat_tibia_l.femur_lat_l.force.Z	femur_lat_tibia_l.femur_lat_l.torque.X	femur_lat_tibia_l.femur_lat_l.torque.Y	femur_lat_tibia_l.femur_lat_l.torque.Z	femur_med_tibia_r.tibia_upper_r.force.X	femur_med_tibia_r.tibia_upper_r.force.Y	femur_med_tibia_r.tibia_upper_r.force.Z	femur_med_tibia_r.tibia_upper_r.torque.X	femur_med_tibia_r.tibia_upper_r.torque.Y	femur_med_tibia_r.tibia_upper_r.torque.Z	femur_med_tibia_r.femur_med_r.force.X	femur_med_tibia_r.femur_med_r.force.Y	femur_med_tibia_r.femur_med_r.force.Z	femur_med_tibia_r.femur_med_r.torque.X	femur_med_tibia_r.femur_med_r.torque.Y	femur_med_tibia_r.femur_med_r.torque.Z	femur_lat_tibia_r.tibia_upper_r.force.X	femur_lat_tibia_r.tibia_upper_r.force.Y	femur_lat_tibia_r.tibia_upper_r.force.Z	femur_lat_tibia_r.tibia_upper_r.torque.X	femur_lat_tibia_r.tibia_upper_r.torque.Y	femur_lat_tibia_r.tibia_upper_r.torque.Z	femur_lat_tibia_r.femur_lat_r.force.X	femur_lat_tibia_r.femur_lat_r.force.Y	femur_lat_tibia_r.femur_lat_r.force.Z	femur_lat_tibia_r.femur_lat_r.torque.X	femur_lat_tibia_r.femur_lat_r.torque.Y	femur_lat_tibia_r.femur_lat_r.torque.Z	aACL_R	pACL_R	aPCL_R	pPCL_R	aMCL_R	aLCL_R	aPCL_L	pPCL_L	aMCL_L	aLCL_L
      0.04779744	     26.36643872	     34.92805829	    148.66147518	      8.07237327	      9.16981216	     15.68122818	    547.49018525	    250.94740486	    476.60319865	    349.39188551	    109.33478526	     15.40281978	     13.27829614	     24.63432492	     20.75675772	     88.62301472	      0.00000000	      5.16463600	    119.44293752	     18.27786674	     27.47883114	     65.76925581	     16.94907422	     16.35518523	    191.68834002	     38.48071761	     78.65336672	     15.27287482	     41.85840147	     42.36861427	     53.11507086	     61.04915126	     29.37592814	      0.00000000	      8.44853649	     13.89243923	     13.84638196	     45.59792577	     18.82145003	     38.48154358	     11.57517921	     25.32537856	      6.07136535	     26.45681946	     18.58239566	     20.14142709	      8.34371186	      9.44270421	     11.17389380	     33.16371351	     14.23060245	     28.89840450	     23.20746238	      4.74474122	     18.63073394	     12.86348145	      9.53979822	      8.21113595	     14.25599442	     10.34142487	      7.08162566	      4.95855754	     12.06526642	     18.37051097	     13.91665236	     46.78820077	     40.19936985	     11.64579941	      6.82749472	     16.08631090	     39.93434493	     22.34208530	     25.99332042	     27.97608515	     56.39238102	     26.29803461	    122.65376543	     82.41770178	     13.50332534	     13.39282406	     31.11257892	     16.79287004	     39.25606356	      6.21545304	     19.40304813	      6.02330698	     78.65760381	     78.65760381	     30.66325745	     30.66325745	     46.82746848	     46.82746848	      2.76307435	     50.99597937	     -9.56042239	      5.21997485	     -0.02578839	      1.48581788	     -2.76307435	    -50.99597937	      9.56042239	     -1.74637766	      0.02558040	     -0.48301696	     -3.31599387	     20.97615968	     -3.40468921	      0.94473225	     -0.02138609	     -1.00501789	      3.31599387	    -20.97615968	      3.40468921	      0.28075727	      0.00368718	     -0.29758878	   -346.03587388	    142.58973259	     62.26472626	     -3.53876365	    -34.09877250	     58.41228750	    346.03587388	   -142.58973259	    -62.26472626	      4.48628968	     11.63441552	     -1.70177317	   -460.69431338	     56.07129757	      4.88956553	      0.93729961	      7.32714790	     21.49817116	    460.69431338	    -56.07129757	     -4.88956553	     -0.68553199	     -7.37779697	      2.80416627	      0.00000000	      0.00000000	      0.00000000	      0.00000000	      0.00000000	      0.00000000	      0.00000000	      0.00000000	      0.00000000	      0.00000000	      0.00000000	      0.00000000	      0.00000000	      0.00000000	      0.00000000	      0.00000000	      0.00000000	      0.00000000	      0.00000000	      0.00000000	      0.00000000	      0.00000000	      0.00000000	      0.00000000	   1079.46433623	     16.24526113	     72.32277748	      0.15130006	    -20.62672099	      5.22210337	  -1079.46433623	    -16.24526113	    -72.32277748	     -0.66148498	     52.57497743	     -4.78353259	    159.73245123	     -4.69915047	    -41.52642310	      0.31604585	      5.72926324	      0.57846143	   -159.73245123	      4.69915047	     41.52642310	     -0.04140097	    -20.99231200	      2.20514127	      0.00000000	      0.00000000	      0.00000000	      0.00000000	      0.00000000	      0.00000000	      0.00000000	      0.00000000	    116.99866359	      0.00000000
      0.04827889	     26.24473974	     34.84846069	    148.59719129	      8.03606360	      9.12779823	     15.63121510	    543.68199640	    250.35357308	    474.33101967	    348.73578051	    109.40343876	     15.33135504	     13.21897768	     24.58182328	     20.70722433	     88.56923485	      0.00000000	      5.14127793	    119.45321923	     18.19285327	     27.35088480	     65.70187247	     16.87008901	     16.27865686	    191.65745628	     38.46408094	     78.60374719	     15.30183408	     41.81841421	     42.35208854	     53.15315873	     60.08435060	     28.88307074	      0.00000000	      8.12629029	     13.73048599	     13.67509524	     45.42413577	     18.73180645	     38.18441830	     11.58017229	     25.25393326	      6.15528728	     26.33470593	     18.49651378	     20.04785694	      8.30615988	      9.40094649	     11.12214639	     33.02938688	     14.16449175	     28.77538948	     23.10119271	      4.72346883	     18.54425256	     12.80603065	      9.49569144	      8.17289009	     14.19128657	     10.30626912	      7.04954568	      4.93602663	     12.00915767	     18.28509125	     13.85184869	     46.62518949	     40.02233458	     11.59256240	      6.80130990	     16.02317776	     39.76173065	     22.23765872	     25.87237091	     27.84575733	     56.19079832	     26.20323456	    122.17208405	     82.22349071	     13.44550337	     13.33228172	     30.97463109	     16.72231906	     39.12083435	      6.18761561	     19.34868181	      6.00781202	     78.30301008	     78.30301008	     30.52030753	     30.52030753	     46.69136028	     46.69136028	      2.76307435	     50.99597937	     -9.56042239	      5.21997485	     -0.02578839	      1.48581788	     -2.76307435	    -50.99597937	      9.56042239	     -1.74637766	      0.02558040	     -0.48301696	     -3.31599387	     20.97615968	     -3.40468921	      0.94473225	     -0.02138609	     -1.00501789	      3.31599387	    -20.97615968	      3.40468921	      0.28075727	      0.00368718	     -0.29758878	   -336.73282250	    139.98209955	     61.82238861	     -3.46595614	    -33.67547717	     57.32563794	    336.73282250	   -139.98209955	    -61.82238861	      4.40534987	     11.33758093	     -1.63011414	   -460.30133020	     57.97072812	      2.49245670	      0.97050001	      8.29795118	     22.25813046	    460.30133020	    -57.97072812	     -2.49245670	     -0.72672690	     -7.44073176	      2.82373197	      0.00000000	      0.00000000	      0.00000000	      0.00000000	      0.00000000	      0.00000000	      0.00000000	      0.00000000	      0.00000000	      0.00000000	      0.00000000	      0.00000000	      0.00000000	      0.00000000	      0.00000000	      0.00000000	      0.00000000	      0.00000000	      0.00000000	      0.00000000	      0.00000000	      0.00000000	      0.00000000	      0.00000000	   1038.54365036	      9.43300371	     69.66693038	      0.02217582	    -19.85474569	      5.03789884	  -1038.54365036	     -9.43300371	    -69.66693038	     -0.49718356	     50.60671120	     -2.12069162	    146.96990030	     -4.68688952	    -38.20664294	      0.30835998	      5.26753076	      0.55040736	   -146.96990030	      4.68688952	     38.20664294	     -0.04977059	    -19.31304833	      2.16730451	      0.00000000	      0.00000000	      0.00000000	      0.00000000	      0.00000000	      0.00000000	      0.00000000	      0.00000000	    116.99866359	      0.00000000
      0.04866272	     26.14820512	     34.78541127	    148.54626809	      8.00729756	      9.09451334	     15.59157465	    540.71437931	    249.90690285	    472.56446225	    348.33012798	    109.48346990	     15.27473037	     13.17198240	     24.54023742	     20.66798742	     88.52664426	      0.00000000	      5.12277322	    119.48162397	     18.12548080	     27.24948867	     65.64850296	     16.80750719	     16.21798928	    191.63298894	     38.45090403	     78.56444275	     15.34432059	     41.94052617	     42.44271426	     53.27242785	     59.34653400	     28.50121125	      0.00000000	      7.87148359	     13.59982957	     13.53685181	     45.27734085	     18.66427917	     37.95352404	     11.57362836	     25.19474879	      6.22257998	     26.23784221	     18.42847026	     19.97371389	      8.27640967	      9.36786565	     11.08110423	     32.92242367	     14.11206496	     28.67754750	     23.01700282	      4.70661583	     18.47572529	     12.76051501	      9.46074629	      8.14257984	     14.13992147	     10.27826064	      7.02413099	      4.91817696	     11.96469933	     18.21740665	     13.80048912	     46.49602626	     39.88188159	     11.55038631	      6.78053995	     15.97285710	     39.62449313	     22.15487408	     25.77645561	     27.74239325	     56.02977444	     26.12751717	    121.78813865	     82.06807915	     13.39921429	     13.28390726	     30.86503699	     16.66617228	     39.01266540	      6.16554435	     19.30530797	      5.99544988	     78.02208721	     78.02208721	     30.40699837	     30.40699837	     46.58351504	     46.58351504	      2.76307435	     50.99597937	     -9.56042239	      5.21997485	     -0.02578839	      1.48581788	     -2.76307435	    -50.99597937	      9.56042239	     -1.74637766	      0.02558040	     -0.48301696	     -3.31599387	     20.97615968	     -3.40468921	      0.94473225	     -0.02138609	     -1.00501789	      3.31599387	    -20.97615968	      3.40468921	      0.28075727	      0.00368718	     -0.29758878	   -347.21345977	    137.82714868	     63.89254951	     -3.42000214	    -34.79315975	     56.37733176	    347.21345977	   -137.82714868	    -63.89254951	      4.36809626	     11.69909227	     -1.40722121	   -467.61590725	     58.14566704	      3.96111238	      0.96533039	      7.86393213	     22.31186375	    467.61590725	    -58.14566704	     -3.96111238	     -0.71207272	     -7.54661662	      2.92771201	      0.00000000	      0.00000000	      0.00000000	      0.00000000	      0.00000000	      0.00000000	      0.00000000	      0.00000000	      0.00000000	      0.00000000	      0.00000000	      0.00000000	      0.00000000	      0.00000000	      0.00000000	      0.00000000	      0.00000000	      0.00000000	      0.00000000	      0.00000000	      0.00000000	      0.00000000	      0.00000000	      0.00000000	   1086.00517857	     18.22574165	     71.14571840	      0.15985271	    -20.71522758	      5.72064194	  -1086.00517857	    -18.22574165	    -71.14571840	     -0.68528528	     52.20499300	     -5.76705150	    156.88309015	     -3.54580510	    -40.68991674	      0.29413338	      5.61735049	      0.65681061	   -156.88309015	      3.54580510	     40.68991674	     -0.02059363	    -20.57666364	      1.70142893	      0.00000000	      0.00000000	      0.00000000	      0.00000000	      0.00000000	      0.00000000	      0.00000000	      0.00000000	    116.99866359	      0.00000000
      0.04904656	     26.05210516	     34.72272213	    148.49563243	      7.97869140	      9.06141375	     15.55213964	    537.66371797	    249.41856383	    470.73676047	    347.73066297	    109.51080939	     15.21841444	     13.12524768	     24.49888988	     20.62897372	     88.48430452	      0.00000000	      5.10437185	    119.46995498	     18.05846502	     27.14862958	     65.59544272	     16.74526813	     16.15762641	    191.60865762	     38.43780330	     78.52536314	     15.35864169	     41.84263592	     42.38530492	     53.26270504	     58.60595031	     28.11467070	      0.00000000	      7.61836793	     13.46785546	     13.39677146	     45.14549181	     18.59617616	     37.72342372	     11.58386161	     25.13714655	      6.29127743	     26.14141439	     18.36080148	     19.89997229	      8.24682485	      9.33496994	     11.04025129	     32.81558460	     14.05988613	     28.57991799	     22.93328217	      4.68985638	     18.40756804	     12.71525171	      9.42599387	      8.11242946	     14.08875555	     10.25027247	      6.99885793	      4.90042673	     11.92048265	     18.15008880	     13.74939879	     46.36756608	     39.74204049	     11.50844513	      6.75986401	     15.92255289	     39.48760053	     22.07250445	     25.68099364	     27.63950784	     55.86849628	     26.05168786	    121.40430287	     81.91218165	     13.35277484	     13.23545456	     30.75578908	     16.61011891	     38.90419596	      6.14358116	     19.26189586	      5.98307454	     77.74272672	     77.74272672	     30.29426989	     30.29426989	     46.47625803	     46.47625803	      2.76307435	     50.99597937	     -9.56042239	      5.21997485	     -0.02578839	      1.48581788	     -2.76307435	    -50.99597937	      9.56042239	     -1.74637766	      0.02558040	     -0.48301696	     -3.31599387	     20.97615968	     -3.40468921	      0.94473225	     -0.02138609	     -1.00501789	      3.31599387	    -20.97615968	      3.40468921	      0.28075727	      0.00368718	     -0.29758878	   -334.14846534	    137.52054156	     62.02635319	     -3.40695870	    -33.68324172	     56.28087155	    334.14846534	   -137.52054156	    -62.02635319	      4.34591607	     11.24736838	     -1.47925193	   -459.30422964	     59.57321100	      1.29423117	      0.99686969	      8.80718765	     22.92889620	    459.30422964	    -59.57321100	     -1.29423117	     -0.75574743	     -7.50816028	      2.84798321	      0.00000000	      0.00000000	      0.00000000	      0.00000000	      0.00000000	      0.00000000	      0.00000000	      0.00000000	      0.00000000	      0.00000000	      0.00000000	      0.00000000	      0.00000000	      0.00000000	      0.00000000	      0.00000000	      0.00000000	      0.00000000	      0.00000000	      0.00000000	      0.00000000	      0.00000000	      0.00000000	      0.00000000	   1029.16458184	      8.89653048	     68.55779988	     -0.00864599	    -19.67668698	      5.32331477	  -1029.16458184	     -8.89653048	    -68.55779988	     -0.47010174	     49.93874058	     -2.06354090	    140.08724268	     -4.08290196	    -36.43680723	      0.29429142	      5.01630149	      0.58015119	   -140.08724268	      4.08290196	     36.43680723	     -0.04237002	    -18.41563007	      1.88985444	      0.00000000	      0.00000000	      0.00000000	      0.00000000	      0.00000000	      0.00000000	      0.00000000	      0.00000000	    116.99866359	      0.00000000
